<?xml version="1.0" encoding="utf-8" standalone="no"?>
<!DOCTYPE svg PUBLIC "-//W3C//DTD SVG 1.1//EN"
  "http://www.w3.org/Graphics/SVG/1.1/DTD/svg11.dtd">
<svg xmlns:xlink="http://www.w3.org/1999/xlink" width="460.8pt" height="345.6pt" viewBox="0 0 460.8 345.6" xmlns="http://www.w3.org/2000/svg" version="1.1">
 <metadata>
  <rdf:RDF xmlns:dc="http://purl.org/dc/elements/1.1/" xmlns:cc="http://creativecommons.org/ns#" xmlns:rdf="http://www.w3.org/1999/02/22-rdf-syntax-ns#">
   <cc:Work>
    <dc:type rdf:resource="http://purl.org/dc/dcmitype/StillImage"/>
    <dc:date>2023-10-29T17:44:14.721161</dc:date>
    <dc:format>image/svg+xml</dc:format>
    <dc:creator>
     <cc:Agent>
      <dc:title>Matplotlib v3.8.0, https://matplotlib.org/</dc:title>
     </cc:Agent>
    </dc:creator>
   </cc:Work>
  </rdf:RDF>
 </metadata>
 <defs>
  <style type="text/css">*{stroke-linejoin: round; stroke-linecap: butt}</style>
 </defs>
 <g id="figure_1">
  <g id="patch_1">
   <path d="M 0 345.6 
L 460.8 345.6 
L 460.8 0 
L 0 0 
z
" style="fill: #ffffff"/>
  </g>
  <g id="axes_1">
   <g id="patch_2">
    <path d="M 57.6 307.584 
L 414.72 307.584 
L 414.72 41.472 
L 57.6 41.472 
z
" style="fill: #ffffff"/>
   </g>
   <g id="patch_3">
    <path d="M 73.833332 307.584 
L 81.438032 307.584 
L 81.438032 285.408 
L 73.833332 285.408 
z
" clip-path="url(#p4550c87299)" style="fill: #006837"/>
   </g>
   <g id="patch_4">
    <path d="M 98.178288 307.584 
L 101.729224 307.584 
L 101.729224 285.408 
L 98.178288 285.408 
z
" clip-path="url(#p4550c87299)" style="fill: #006837"/>
   </g>
   <g id="patch_5">
    <path d="M 107.50902 307.584 
L 114.411182 307.584 
L 114.411182 285.408 
L 107.50902 285.408 
z
" clip-path="url(#p4550c87299)" style="fill: #006837"/>
   </g>
   <g id="patch_6">
    <path d="M 129.634036 307.584 
L 137.238131 307.584 
L 137.238131 285.408 
L 129.634036 285.408 
z
" clip-path="url(#p4550c87299)" style="fill: #006837"/>
   </g>
   <g id="patch_7">
    <path d="M 149.619541 307.584 
L 154.993416 307.584 
L 154.993416 285.408 
L 149.619541 285.408 
z
" clip-path="url(#p4550c87299)" style="fill: #006837"/>
   </g>
   <g id="patch_8">
    <path d="M 167.680513 307.584 
L 175.284003 307.584 
L 175.284003 285.408 
L 167.680513 285.408 
z
" clip-path="url(#p4550c87299)" style="fill: #006837"/>
   </g>
   <g id="patch_9">
    <path d="M 190.507462 307.584 
L 198.112162 307.584 
L 198.112162 285.408 
L 190.507462 285.408 
z
" clip-path="url(#p4550c87299)" style="fill: #006837"/>
   </g>
   <g id="patch_10">
    <path d="M 213.370544 307.584 
L 220.939716 307.584 
L 220.939716 285.408 
L 213.370544 285.408 
z
" clip-path="url(#p4550c87299)" style="fill: #006837"/>
   </g>
   <g id="patch_11">
    <path d="M 238.698931 307.584 
L 246.303631 307.584 
L 246.303631 285.408 
L 238.698931 285.408 
z
" clip-path="url(#p4550c87299)" style="fill: #006837"/>
   </g>
   <g id="patch_12">
    <path d="M 261.53223 307.584 
L 269.13058 307.584 
L 269.13058 285.408 
L 261.53223 285.408 
z
" clip-path="url(#p4550c87299)" style="fill: #006837"/>
   </g>
   <g id="patch_13">
    <path d="M 284.354644 307.584 
L 289.298107 307.584 
L 289.298107 285.408 
L 284.354644 285.408 
z
" clip-path="url(#p4550c87299)" style="fill: #006837"/>
   </g>
   <g id="patch_14">
    <path d="M 294.499635 307.584 
L 302.104335 307.584 
L 302.104335 285.408 
L 294.499635 285.408 
z
" clip-path="url(#p4550c87299)" style="fill: #006837"/>
   </g>
   <g id="patch_15">
    <path d="M 317.327189 307.584 
L 324.931284 307.584 
L 324.931284 285.408 
L 317.327189 285.408 
z
" clip-path="url(#p4550c87299)" style="fill: #006837"/>
   </g>
   <g id="patch_16">
    <path d="M 340.154592 307.584 
L 342.686569 307.584 
L 342.686569 285.408 
L 340.154592 285.408 
z
" clip-path="url(#p4550c87299)" style="fill: #006837"/>
   </g>
   <g id="patch_17">
    <path d="M 350.300188 307.584 
L 353.03384 307.584 
L 353.03384 285.408 
L 350.300188 285.408 
z
" clip-path="url(#p4550c87299)" style="fill: #006837"/>
   </g>
   <g id="patch_18">
    <path d="M 359.265062 307.584 
L 365.513518 307.584 
L 365.513518 285.408 
L 359.265062 285.408 
z
" clip-path="url(#p4550c87299)" style="fill: #006837"/>
   </g>
   <g id="patch_19">
    <path d="M 380.740152 307.584 
L 388.341072 307.584 
L 388.341072 285.408 
L 380.740152 285.408 
z
" clip-path="url(#p4550c87299)" style="fill: #006837"/>
   </g>
   <g id="patch_20">
    <path d="M 89.052256 285.408 
L 93.826396 285.408 
L 93.826396 263.232 
L 89.052256 263.232 
z
" clip-path="url(#p4550c87299)" style="fill: #a50026"/>
   </g>
   <g id="patch_21">
    <path d="M 97.326082 285.408 
L 104.265585 285.408 
L 104.265585 263.232 
L 97.326082 263.232 
z
" clip-path="url(#p4550c87299)" style="fill: #a50026"/>
   </g>
   <g id="patch_22">
    <path d="M 122.027371 285.408 
L 129.629501 285.408 
L 129.629501 263.232 
L 122.027371 263.232 
z
" clip-path="url(#p4550c87299)" style="fill: #a50026"/>
   </g>
   <g id="patch_23">
    <path d="M 144.854925 285.408 
L 152.457054 285.408 
L 152.457054 263.232 
L 144.854925 263.232 
z
" clip-path="url(#p4550c87299)" style="fill: #a50026"/>
   </g>
   <g id="patch_24">
    <path d="M 165.147327 285.408 
L 168.659561 285.408 
L 168.659561 263.232 
L 165.147327 263.232 
z
" clip-path="url(#p4550c87299)" style="fill: #a50026"/>
   </g>
   <g id="patch_25">
    <path d="M 175.288992 285.408 
L 182.893843 285.408 
L 182.893843 263.232 
L 175.288992 263.232 
z
" clip-path="url(#p4550c87299)" style="fill: #a50026"/>
   </g>
   <g id="patch_26">
    <path d="M 200.653663 285.408 
L 208.257758 285.408 
L 208.257758 263.232 
L 200.653663 263.232 
z
" clip-path="url(#p4550c87299)" style="fill: #a50026"/>
   </g>
   <g id="patch_27">
    <path d="M 220.961335 285.408 
L 228.548951 285.408 
L 228.548951 263.232 
L 220.961335 263.232 
z
" clip-path="url(#p4550c87299)" style="fill: #a50026"/>
   </g>
   <g id="patch_28">
    <path d="M 246.308771 285.408 
L 249.8204 285.408 
L 249.8204 263.232 
L 246.308771 263.232 
z
" clip-path="url(#p4550c87299)" style="fill: #a50026"/>
   </g>
   <g id="patch_29">
    <path d="M 256.453611 285.408 
L 264.057706 285.408 
L 264.057706 263.232 
L 256.453611 263.232 
z
" clip-path="url(#p4550c87299)" style="fill: #a50026"/>
   </g>
   <g id="patch_30">
    <path d="M 279.281165 285.408 
L 284.862611 285.408 
L 284.862611 263.232 
L 279.281165 263.232 
z
" clip-path="url(#p4550c87299)" style="fill: #a50026"/>
   </g>
   <g id="patch_31">
    <path d="M 291.963123 285.408 
L 295.838795 285.408 
L 295.838795 263.232 
L 291.963123 263.232 
z
" clip-path="url(#p4550c87299)" style="fill: #a50026"/>
   </g>
   <g id="patch_32">
    <path d="M 302.117639 285.408 
L 309.712814 285.408 
L 309.712814 263.232 
L 302.117639 263.232 
z
" clip-path="url(#p4550c87299)" style="fill: #a50026"/>
   </g>
   <g id="patch_33">
    <path d="M 332.545508 285.408 
L 340.150208 285.408 
L 340.150208 263.232 
L 332.545508 263.232 
z
" clip-path="url(#p4550c87299)" style="fill: #a50026"/>
   </g>
   <g id="patch_34">
    <path d="M 348.642641 285.408 
L 355.368526 285.408 
L 355.368526 263.232 
L 348.642641 263.232 
z
" clip-path="url(#p4550c87299)" style="fill: #a50026"/>
   </g>
   <g id="patch_35">
    <path d="M 366.866738 285.408 
L 373.123358 285.408 
L 373.123358 263.232 
L 366.866738 263.232 
z
" clip-path="url(#p4550c87299)" style="fill: #a50026"/>
   </g>
   <g id="patch_36">
    <path d="M 390.882573 285.408 
L 398.487273 285.408 
L 398.487273 263.232 
L 390.882573 263.232 
z
" clip-path="url(#p4550c87299)" style="fill: #a50026"/>
   </g>
   <g id="patch_37">
    <path d="M 73.834541 263.232 
L 86.510149 263.232 
L 86.510149 241.056 
L 73.834541 241.056 
z
" clip-path="url(#p4550c87299)" style="fill: #b7e075"/>
   </g>
   <g id="patch_38">
    <path d="M 106.805726 263.232 
L 113.227889 263.232 
L 113.227889 241.056 
L 106.805726 241.056 
z
" clip-path="url(#p4550c87299)" style="fill: #b7e075"/>
   </g>
   <g id="patch_39">
    <path d="M 129.635245 263.232 
L 137.238131 263.232 
L 137.238131 241.056 
L 129.635245 241.056 
z
" clip-path="url(#p4550c87299)" style="fill: #b7e075"/>
   </g>
   <g id="patch_40">
    <path d="M 147.389321 263.232 
L 152.214863 263.232 
L 152.214863 241.056 
L 147.389321 241.056 
z
" clip-path="url(#p4550c87299)" style="fill: #b7e075"/>
   </g>
   <g id="patch_41">
    <path d="M 164.601262 263.232 
L 170.211886 263.232 
L 170.211886 241.056 
L 164.601262 241.056 
z
" clip-path="url(#p4550c87299)" style="fill: #b7e075"/>
   </g>
   <g id="patch_42">
    <path d="M 185.433984 263.232 
L 193.039439 263.232 
L 193.039439 241.056 
L 185.433984 241.056 
z
" clip-path="url(#p4550c87299)" style="fill: #b7e075"/>
   </g>
   <g id="patch_43">
    <path d="M 205.389706 263.232 
L 208.494961 263.232 
L 208.494961 241.056 
L 205.389706 241.056 
z
" clip-path="url(#p4550c87299)" style="fill: #b7e075"/>
   </g>
   <g id="patch_44">
    <path d="M 215.870773 263.232 
L 223.476077 263.232 
L 223.476077 241.056 
L 215.870773 241.056 
z
" clip-path="url(#p4550c87299)" style="fill: #b7e075"/>
   </g>
   <g id="patch_45">
    <path d="M 241.234688 263.232 
L 248.839387 263.232 
L 248.839387 241.056 
L 241.234688 241.056 
z
" clip-path="url(#p4550c87299)" style="fill: #b7e075"/>
   </g>
   <g id="patch_46">
    <path d="M 264.061637 263.232 
L 269.117276 263.232 
L 269.117276 241.056 
L 264.061637 241.056 
z
" clip-path="url(#p4550c87299)" style="fill: #b7e075"/>
   </g>
   <g id="patch_47">
    <path d="M 272.331532 263.232 
L 279.276781 263.232 
L 279.276781 241.056 
L 272.331532 241.056 
z
" clip-path="url(#p4550c87299)" style="fill: #b7e075"/>
   </g>
   <g id="patch_48">
    <path d="M 291.988521 263.232 
L 299.567974 263.232 
L 299.567974 241.056 
L 291.988521 241.056 
z
" clip-path="url(#p4550c87299)" style="fill: #b7e075"/>
   </g>
   <g id="patch_49">
    <path d="M 312.253711 263.232 
L 319.859015 263.232 
L 319.859015 241.056 
L 312.253711 241.056 
z
" clip-path="url(#p4550c87299)" style="fill: #b7e075"/>
   </g>
   <g id="patch_50">
    <path d="M 340.153382 263.232 
L 343.364464 263.232 
L 343.364464 241.056 
L 340.153382 241.056 
z
" clip-path="url(#p4550c87299)" style="fill: #b7e075"/>
   </g>
   <g id="patch_51">
    <path d="M 350.299583 263.232 
L 355.706567 263.232 
L 355.706567 241.056 
L 350.299583 241.056 
z
" clip-path="url(#p4550c87299)" style="fill: #b7e075"/>
   </g>
   <g id="patch_52">
    <path d="M 370.616779 263.232 
L 378.195475 263.232 
L 378.195475 241.056 
L 370.616779 241.056 
z
" clip-path="url(#p4550c87299)" style="fill: #b7e075"/>
   </g>
   <g id="patch_53">
    <path d="M 73.832727 241.056 
L 81.438032 241.056 
L 81.438032 218.88 
L 73.832727 218.88 
z
" clip-path="url(#p4550c87299)" style="fill: #fdbf6f"/>
   </g>
   <g id="patch_54">
    <path d="M 95.686828 241.056 
L 101.729224 241.056 
L 101.729224 218.88 
L 95.686828 218.88 
z
" clip-path="url(#p4550c87299)" style="fill: #fdbf6f"/>
   </g>
   <g id="patch_55">
    <path d="M 119.496603 241.056 
L 127.093139 241.056 
L 127.093139 218.88 
L 119.496603 218.88 
z
" clip-path="url(#p4550c87299)" style="fill: #fdbf6f"/>
   </g>
   <g id="patch_56">
    <path d="M 142.315993 241.056 
L 149.920693 241.056 
L 149.920693 218.88 
L 142.315993 218.88 
z
" clip-path="url(#p4550c87299)" style="fill: #fdbf6f"/>
   </g>
   <g id="patch_57">
    <path d="M 160.047241 241.056 
L 165.139012 241.056 
L 165.139012 218.88 
L 160.047241 218.88 
z
" clip-path="url(#p4550c87299)" style="fill: #fdbf6f"/>
   </g>
   <g id="patch_58">
    <path d="M 180.362471 241.056 
L 187.966566 241.056 
L 187.966566 218.88 
L 180.362471 218.88 
z
" clip-path="url(#p4550c87299)" style="fill: #fdbf6f"/>
   </g>
   <g id="patch_59">
    <path d="M 198.819235 241.056 
L 205.721397 241.056 
L 205.721397 218.88 
L 198.819235 218.88 
z
" clip-path="url(#p4550c87299)" style="fill: #fdbf6f"/>
   </g>
   <g id="patch_60">
    <path d="M 220.94667 241.056 
L 225.734114 241.056 
L 225.734114 218.88 
L 220.94667 218.88 
z
" clip-path="url(#p4550c87299)" style="fill: #fdbf6f"/>
   </g>
   <g id="patch_61">
    <path d="M 238.701501 241.056 
L 246.303631 241.056 
L 246.303631 218.88 
L 238.701501 218.88 
z
" clip-path="url(#p4550c87299)" style="fill: #fdbf6f"/>
   </g>
   <g id="patch_62">
    <path d="M 264.062242 241.056 
L 271.667546 241.056 
L 271.667546 218.88 
L 264.062242 218.88 
z
" clip-path="url(#p4550c87299)" style="fill: #fdbf6f"/>
   </g>
   <g id="patch_63">
    <path d="M 286.8904 241.056 
L 294.055012 241.056 
L 294.055012 218.88 
L 286.8904 218.88 
z
" clip-path="url(#p4550c87299)" style="fill: #fdbf6f"/>
   </g>
   <g id="patch_64">
    <path d="M 307.181593 241.056 
L 311.971456 241.056 
L 311.971456 218.88 
L 307.181593 218.88 
z
" clip-path="url(#p4550c87299)" style="fill: #fdbf6f"/>
   </g>
   <g id="patch_65">
    <path d="M 317.327189 241.056 
L 324.931889 241.056 
L 324.931889 218.88 
L 317.327189 218.88 
z
" clip-path="url(#p4550c87299)" style="fill: #fdbf6f"/>
   </g>
   <g id="patch_66">
    <path d="M 340.157162 241.056 
L 347.759443 241.056 
L 347.759443 218.88 
L 340.157162 218.88 
z
" clip-path="url(#p4550c87299)" style="fill: #fdbf6f"/>
   </g>
   <g id="patch_67">
    <path d="M 362.984716 241.056 
L 370.58624 241.056 
L 370.58624 218.88 
L 362.984716 218.88 
z
" clip-path="url(#p4550c87299)" style="fill: #fdbf6f"/>
   </g>
   <g id="patch_68">
    <path d="M 388.346212 241.056 
L 395.950911 241.056 
L 395.950911 218.88 
L 388.346212 218.88 
z
" clip-path="url(#p4550c87299)" style="fill: #fdbf6f"/>
   </g>
   <g id="patch_69">
    <path d="M 81.442416 218.88 
L 85.866572 218.88 
L 85.866572 196.704 
L 81.442416 196.704 
z
" clip-path="url(#p4550c87299)" style="fill: #006837"/>
   </g>
   <g id="patch_70">
    <path d="M 91.588012 218.88 
L 98.112222 218.88 
L 98.112222 196.704 
L 91.588012 196.704 
z
" clip-path="url(#p4550c87299)" style="fill: #006837"/>
   </g>
   <g id="patch_71">
    <path d="M 114.416171 218.88 
L 122.020417 218.88 
L 122.020417 196.704 
L 114.416171 196.704 
z
" clip-path="url(#p4550c87299)" style="fill: #006837"/>
   </g>
   <g id="patch_72">
    <path d="M 137.24312 218.88 
L 144.847819 218.88 
L 144.847819 196.704 
L 137.24312 196.704 
z
" clip-path="url(#p4550c87299)" style="fill: #006837"/>
   </g>
   <g id="patch_73">
    <path d="M 161.914627 218.88 
L 167.675373 218.88 
L 167.675373 196.704 
L 161.914627 196.704 
z
" clip-path="url(#p4550c87299)" style="fill: #006837"/>
   </g>
   <g id="patch_74">
    <path d="M 175.288992 218.88 
L 182.893843 218.88 
L 182.893843 196.704 
L 175.288992 196.704 
z
" clip-path="url(#p4550c87299)" style="fill: #006837"/>
   </g>
   <g id="patch_75">
    <path d="M 198.117302 218.88 
L 200.647919 218.88 
L 200.647919 196.704 
L 198.117302 196.704 
z
" clip-path="url(#p4550c87299)" style="fill: #006837"/>
   </g>
   <g id="patch_76">
    <path d="M 208.262143 218.88 
L 213.330481 218.88 
L 213.330481 196.704 
L 208.262143 196.704 
z
" clip-path="url(#p4550c87299)" style="fill: #006837"/>
   </g>
   <g id="patch_77">
    <path d="M 220.947275 218.88 
L 224.991665 218.88 
L 224.991665 196.704 
L 220.947275 196.704 
z
" clip-path="url(#p4550c87299)" style="fill: #006837"/>
   </g>
   <g id="patch_78">
    <path d="M 231.090301 218.88 
L 238.694396 218.88 
L 238.694396 196.704 
L 231.090301 196.704 
z
" clip-path="url(#p4550c87299)" style="fill: #006837"/>
   </g>
   <g id="patch_79">
    <path d="M 253.91725 218.88 
L 261.521345 218.88 
L 261.521345 196.704 
L 253.91725 196.704 
z
" clip-path="url(#p4550c87299)" style="fill: #006837"/>
   </g>
   <g id="patch_80">
    <path d="M 277.217244 218.88 
L 284.349504 218.88 
L 284.349504 196.704 
L 277.217244 196.704 
z
" clip-path="url(#p4550c87299)" style="fill: #006837"/>
   </g>
   <g id="patch_81">
    <path d="M 302.108719 218.88 
L 309.712814 218.88 
L 309.712814 196.704 
L 302.108719 196.704 
z
" clip-path="url(#p4550c87299)" style="fill: #006837"/>
   </g>
   <g id="patch_82">
    <path d="M 324.936273 218.88 
L 332.540368 218.88 
L 332.540368 196.704 
L 324.936273 196.704 
z
" clip-path="url(#p4550c87299)" style="fill: #006837"/>
   </g>
   <g id="patch_83">
    <path d="M 342.764578 218.88 
L 350.295804 218.88 
L 350.295804 196.704 
L 342.764578 196.704 
z
" clip-path="url(#p4550c87299)" style="fill: #006837"/>
   </g>
   <g id="patch_84">
    <path d="M 373.143011 218.88 
L 380.732593 218.88 
L 380.732593 196.704 
L 373.143011 196.704 
z
" clip-path="url(#p4550c87299)" style="fill: #006837"/>
   </g>
   <g id="patch_85">
    <path d="M 88.570442 196.704 
L 94.119989 196.704 
L 94.119989 174.528 
L 88.570442 174.528 
z
" clip-path="url(#p4550c87299)" style="fill: #b7e075"/>
   </g>
   <g id="patch_86">
    <path d="M 100.871877 196.704 
L 106.801947 196.704 
L 106.801947 174.528 
L 100.871877 174.528 
z
" clip-path="url(#p4550c87299)" style="fill: #b7e075"/>
   </g>
   <g id="patch_87">
    <path d="M 122.024196 196.704 
L 129.628896 196.704 
L 129.628896 174.528 
L 122.024196 174.528 
z
" clip-path="url(#p4550c87299)" style="fill: #b7e075"/>
   </g>
   <g id="patch_88">
    <path d="M 141.627969 196.704 
L 147.384332 196.704 
L 147.384332 174.528 
L 141.627969 174.528 
z
" clip-path="url(#p4550c87299)" style="fill: #b7e075"/>
   </g>
   <g id="patch_89">
    <path d="M 160.072639 196.704 
L 164.567699 196.704 
L 164.567699 174.528 
L 160.072639 174.528 
z
" clip-path="url(#p4550c87299)" style="fill: #b7e075"/>
   </g>
   <g id="patch_90">
    <path d="M 177.826714 196.704 
L 185.430204 196.704 
L 185.430204 174.528 
L 177.826714 174.528 
z
" clip-path="url(#p4550c87299)" style="fill: #b7e075"/>
   </g>
   <g id="patch_91">
    <path d="M 200.651698 196.704 
L 205.342084 196.704 
L 205.342084 174.528 
L 200.651698 174.528 
z
" clip-path="url(#p4550c87299)" style="fill: #b7e075"/>
   </g>
   <g id="patch_92">
    <path d="M 208.543641 196.704 
L 215.866993 196.704 
L 215.866993 174.528 
L 208.543641 174.528 
z
" clip-path="url(#p4550c87299)" style="fill: #b7e075"/>
   </g>
   <g id="patch_93">
    <path d="M 228.34788 196.704 
L 233.621069 196.704 
L 233.621069 174.528 
L 228.34788 174.528 
z
" clip-path="url(#p4550c87299)" style="fill: #b7e075"/>
   </g>
   <g id="patch_94">
    <path d="M 248.843772 196.704 
L 256.448622 196.704 
L 256.448622 174.528 
L 248.843772 174.528 
z
" clip-path="url(#p4550c87299)" style="fill: #b7e075"/>
   </g>
   <g id="patch_95">
    <path d="M 269.171097 196.704 
L 272.316263 196.704 
L 272.316263 174.528 
L 269.171097 174.528 
z
" clip-path="url(#p4550c87299)" style="fill: #b7e075"/>
   </g>
   <g id="patch_96">
    <path d="M 286.89161 196.704 
L 291.958134 196.704 
L 291.958134 174.528 
L 286.89161 174.528 
z
" clip-path="url(#p4550c87299)" style="fill: #b7e075"/>
   </g>
   <g id="patch_97">
    <path d="M 299.571753 196.704 
L 306.854286 196.704 
L 306.854286 174.528 
L 299.571753 174.528 
z
" clip-path="url(#p4550c87299)" style="fill: #b7e075"/>
   </g>
   <g id="patch_98">
    <path d="M 319.862946 196.704 
L 327.46825 196.704 
L 327.46825 174.528 
L 319.862946 174.528 
z
" clip-path="url(#p4550c87299)" style="fill: #b7e075"/>
   </g>
   <g id="patch_99">
    <path d="M 343.413295 196.704 
L 350.295804 196.704 
L 350.295804 174.528 
L 343.413295 174.528 
z
" clip-path="url(#p4550c87299)" style="fill: #b7e075"/>
   </g>
   <g id="patch_100">
    <path d="M 362.981541 196.704 
L 370.563563 196.704 
L 370.563563 174.528 
L 362.981541 174.528 
z
" clip-path="url(#p4550c87299)" style="fill: #b7e075"/>
   </g>
   <g id="patch_101">
    <path d="M 385.80849 196.704 
L 393.41455 196.704 
L 393.41455 174.528 
L 385.80849 174.528 
z
" clip-path="url(#p4550c87299)" style="fill: #b7e075"/>
   </g>
   <g id="patch_102">
    <path d="M 81.442416 174.528 
L 89.047267 174.528 
L 89.047267 152.352 
L 81.442416 152.352 
z
" clip-path="url(#p4550c87299)" style="fill: #a50026"/>
   </g>
   <g id="patch_103">
    <path d="M 104.26997 174.528 
L 107.498286 174.528 
L 107.498286 152.352 
L 104.26997 152.352 
z
" clip-path="url(#p4550c87299)" style="fill: #a50026"/>
   </g>
   <g id="patch_104">
    <path d="M 114.418136 174.528 
L 122.019661 174.528 
L 122.019661 152.352 
L 114.418136 152.352 
z
" clip-path="url(#p4550c87299)" style="fill: #a50026"/>
   </g>
   <g id="patch_105">
    <path d="M 137.24312 174.528 
L 144.847819 174.528 
L 144.847819 152.352 
L 137.24312 152.352 
z
" clip-path="url(#p4550c87299)" style="fill: #a50026"/>
   </g>
   <g id="patch_106">
    <path d="M 157.350476 174.528 
L 165.139012 174.528 
L 165.139012 152.352 
L 157.350476 152.352 
z
" clip-path="url(#p4550c87299)" style="fill: #a50026"/>
   </g>
   <g id="patch_107">
    <path d="M 182.901402 174.528 
L 186.191098 174.528 
L 186.191098 152.352 
L 182.901402 152.352 
z
" clip-path="url(#p4550c87299)" style="fill: #a50026"/>
   </g>
   <g id="patch_108">
    <path d="M 193.045789 174.528 
L 200.648523 174.528 
L 200.648523 152.352 
L 193.045789 152.352 
z
" clip-path="url(#p4550c87299)" style="fill: #a50026"/>
   </g>
   <g id="patch_109">
    <path d="M 215.871378 174.528 
L 220.939716 174.528 
L 220.939716 152.352 
L 215.871378 152.352 
z
" clip-path="url(#p4550c87299)" style="fill: #a50026"/>
   </g>
   <g id="patch_110">
    <path d="M 232.310331 174.528 
L 238.694396 174.528 
L 238.694396 152.352 
L 232.310331 152.352 
z
" clip-path="url(#p4550c87299)" style="fill: #a50026"/>
   </g>
   <g id="patch_111">
    <path d="M 249.857742 174.528 
L 256.449227 174.528 
L 256.449227 152.352 
L 249.857742 152.352 
z
" clip-path="url(#p4550c87299)" style="fill: #a50026"/>
   </g>
   <g id="patch_112">
    <path d="M 271.671326 174.528 
L 279.276781 174.528 
L 279.276781 152.352 
L 271.671326 152.352 
z
" clip-path="url(#p4550c87299)" style="fill: #a50026"/>
   </g>
   <g id="patch_113">
    <path d="M 295.849529 174.528 
L 302.104335 174.528 
L 302.104335 152.352 
L 295.849529 152.352 
z
" clip-path="url(#p4550c87299)" style="fill: #a50026"/>
   </g>
   <g id="patch_114">
    <path d="M 313.547214 174.528 
L 317.97515 174.528 
L 317.97515 152.352 
L 313.547214 152.352 
z
" clip-path="url(#p4550c87299)" style="fill: #a50026"/>
   </g>
   <g id="patch_115">
    <path d="M 324.936273 174.528 
L 332.540973 174.528 
L 332.540973 152.352 
L 324.936273 152.352 
z
" clip-path="url(#p4550c87299)" style="fill: #a50026"/>
   </g>
   <g id="patch_116">
    <path d="M 347.764431 174.528 
L 348.611044 174.528 
L 348.611044 152.352 
L 347.764431 152.352 
z
" clip-path="url(#p4550c87299)" style="fill: #a50026"/>
   </g>
   <g id="patch_117">
    <path d="M 355.373062 174.528 
L 362.977157 174.528 
L 362.977157 152.352 
L 355.373062 152.352 
z
" clip-path="url(#p4550c87299)" style="fill: #a50026"/>
   </g>
   <g id="patch_118">
    <path d="M 377.275389 174.528 
L 383.268954 174.528 
L 383.268954 152.352 
L 377.275389 152.352 
z
" clip-path="url(#p4550c87299)" style="fill: #a50026"/>
   </g>
   <g id="patch_119">
    <path d="M 81.441811 152.352 
L 89.047267 152.352 
L 89.047267 130.176 
L 81.441811 130.176 
z
" clip-path="url(#p4550c87299)" style="fill: #fdbf6f"/>
   </g>
   <g id="patch_120">
    <path d="M 101.736178 152.352 
L 106.257998 152.352 
L 106.257998 130.176 
L 101.736178 130.176 
z
" clip-path="url(#p4550c87299)" style="fill: #fdbf6f"/>
   </g>
   <g id="patch_121">
    <path d="M 111.8786 152.352 
L 119.483904 152.352 
L 119.483904 130.176 
L 111.8786 130.176 
z
" clip-path="url(#p4550c87299)" style="fill: #fdbf6f"/>
   </g>
   <g id="patch_122">
    <path d="M 134.707363 152.352 
L 142.311458 152.352 
L 142.311458 130.176 
L 134.707363 130.176 
z
" clip-path="url(#p4550c87299)" style="fill: #fdbf6f"/>
   </g>
   <g id="patch_123">
    <path d="M 157.534312 152.352 
L 158.98202 152.352 
L 158.98202 130.176 
L 157.534312 130.176 
z
" clip-path="url(#p4550c87299)" style="fill: #fdbf6f"/>
   </g>
   <g id="patch_124">
    <path d="M 165.147932 152.352 
L 165.488391 152.352 
L 165.488391 130.176 
L 165.147932 130.176 
z
" clip-path="url(#p4550c87299)" style="fill: #fdbf6f"/>
   </g>
   <g id="patch_125">
    <path d="M 166.318525 152.352 
L 172.748247 152.352 
L 172.748247 130.176 
L 166.318525 130.176 
z
" clip-path="url(#p4550c87299)" style="fill: #fdbf6f"/>
   </g>
   <g id="patch_126">
    <path d="M 187.971101 152.352 
L 195.575801 152.352 
L 195.575801 130.176 
L 187.971101 130.176 
z
" clip-path="url(#p4550c87299)" style="fill: #fdbf6f"/>
   </g>
   <g id="patch_127">
    <path d="M 213.336226 152.352 
L 220.939716 152.352 
L 220.939716 130.176 
L 213.336226 130.176 
z
" clip-path="url(#p4550c87299)" style="fill: #fdbf6f"/>
   </g>
   <g id="patch_128">
    <path d="M 231.089696 152.352 
L 238.694396 152.352 
L 238.694396 130.176 
L 231.089696 130.176 
z
" clip-path="url(#p4550c87299)" style="fill: #fdbf6f"/>
   </g>
   <g id="patch_129">
    <path d="M 250.345451 152.352 
L 256.448622 152.352 
L 256.448622 130.176 
L 250.345451 130.176 
z
" clip-path="url(#p4550c87299)" style="fill: #fdbf6f"/>
   </g>
   <g id="patch_130">
    <path d="M 271.672081 152.352 
L 279.276781 152.352 
L 279.276781 130.176 
L 271.672081 130.176 
z
" clip-path="url(#p4550c87299)" style="fill: #fdbf6f"/>
   </g>
   <g id="patch_131">
    <path d="M 294.068316 152.352 
L 299.567974 152.352 
L 299.567974 130.176 
L 294.068316 130.176 
z
" clip-path="url(#p4550c87299)" style="fill: #fdbf6f"/>
   </g>
   <g id="patch_132">
    <path d="M 311.987935 152.352 
L 317.322654 152.352 
L 317.322654 130.176 
L 311.987935 130.176 
z
" clip-path="url(#p4550c87299)" style="fill: #fdbf6f"/>
   </g>
   <g id="patch_133">
    <path d="M 332.544903 152.352 
L 340.150208 152.352 
L 340.150208 130.176 
L 332.544903 130.176 
z
" clip-path="url(#p4550c87299)" style="fill: #fdbf6f"/>
   </g>
   <g id="patch_134">
    <path d="M 355.375632 152.352 
L 362.977761 152.352 
L 362.977761 130.176 
L 355.375632 130.176 
z
" clip-path="url(#p4550c87299)" style="fill: #fdbf6f"/>
   </g>
   <g id="patch_135">
    <path d="M 373.737152 152.352 
L 380.732593 152.352 
L 380.732593 130.176 
L 373.737152 130.176 
z
" clip-path="url(#p4550c87299)" style="fill: #fdbf6f"/>
   </g>
   <g id="patch_136">
    <path d="M 86.51529 130.176 
L 88.513296 130.176 
L 88.513296 108 
L 86.51529 108 
z
" clip-path="url(#p4550c87299)" style="fill: #b7e075"/>
   </g>
   <g id="patch_137">
    <path d="M 94.123769 130.176 
L 100.838315 130.176 
L 100.838315 108 
L 94.123769 108 
z
" clip-path="url(#p4550c87299)" style="fill: #b7e075"/>
   </g>
   <g id="patch_138">
    <path d="M 113.277325 130.176 
L 122.019661 130.176 
L 122.019661 108 
L 113.277325 108 
z
" clip-path="url(#p4550c87299)" style="fill: #b7e075"/>
   </g>
   <g id="patch_139">
    <path d="M 137.24448 130.176 
L 141.575358 130.176 
L 141.575358 108 
L 137.24448 108 
z
" clip-path="url(#p4550c87299)" style="fill: #b7e075"/>
   </g>
   <g id="patch_140">
    <path d="M 152.265508 130.176 
L 160.066289 130.176 
L 160.066289 108 
L 152.265508 108 
z
" clip-path="url(#p4550c87299)" style="fill: #b7e075"/>
   </g>
   <g id="patch_141">
    <path d="M 170.215665 130.176 
L 177.820969 130.176 
L 177.820969 108 
L 170.215665 108 
z
" clip-path="url(#p4550c87299)" style="fill: #b7e075"/>
   </g>
   <g id="patch_142">
    <path d="M 193.043219 130.176 
L 200.648523 130.176 
L 200.648523 108 
L 193.043219 108 
z
" clip-path="url(#p4550c87299)" style="fill: #b7e075"/>
   </g>
   <g id="patch_143">
    <path d="M 223.481217 130.176 
L 228.312958 130.176 
L 228.312958 108 
L 223.481217 108 
z
" clip-path="url(#p4550c87299)" style="fill: #b7e075"/>
   </g>
   <g id="patch_144">
    <path d="M 233.625453 130.176 
L 241.230908 130.176 
L 241.230908 108 
L 233.625453 108 
z
" clip-path="url(#p4550c87299)" style="fill: #b7e075"/>
   </g>
   <g id="patch_145">
    <path d="M 256.453007 130.176 
L 264.057706 130.176 
L 264.057706 108 
L 256.453007 108 
z
" clip-path="url(#p4550c87299)" style="fill: #b7e075"/>
   </g>
   <g id="patch_146">
    <path d="M 279.280561 130.176 
L 286.886016 130.176 
L 286.886016 108 
L 279.280561 108 
z
" clip-path="url(#p4550c87299)" style="fill: #b7e075"/>
   </g>
   <g id="patch_147">
    <path d="M 306.901908 130.176 
L 312.249931 130.176 
L 312.249931 108 
L 306.901908 108 
z
" clip-path="url(#p4550c87299)" style="fill: #b7e075"/>
   </g>
   <g id="patch_148">
    <path d="M 327.473995 130.176 
L 340.149603 130.176 
L 340.149603 108 
L 327.473995 108 
z
" clip-path="url(#p4550c87299)" style="fill: #b7e075"/>
   </g>
   <g id="patch_149">
    <path d="M 355.740129 130.176 
L 362.977157 130.176 
L 362.977157 108 
L 355.740129 108 
z
" clip-path="url(#p4550c87299)" style="fill: #b7e075"/>
   </g>
   <g id="patch_150">
    <path d="M 378.199255 130.176 
L 385.80471 130.176 
L 385.80471 108 
L 378.199255 108 
z
" clip-path="url(#p4550c87299)" style="fill: #b7e075"/>
   </g>
   <g id="patch_151">
    <path d="M 73.833332 108 
L 81.438032 108 
L 81.438032 85.824 
L 73.833332 85.824 
z
" clip-path="url(#p4550c87299)" style="fill: #a50026"/>
   </g>
   <g id="patch_152">
    <path d="M 93.841665 108 
L 97.309452 108 
L 97.309452 85.824 
L 93.841665 85.824 
z
" clip-path="url(#p4550c87299)" style="fill: #a50026"/>
   </g>
   <g id="patch_153">
    <path d="M 107.555886 108 
L 114.411182 108 
L 114.411182 85.824 
L 107.555886 85.824 
z
" clip-path="url(#p4550c87299)" style="fill: #a50026"/>
   </g>
   <g id="patch_154">
    <path d="M 129.634036 108 
L 137.238131 108 
L 137.238131 85.824 
L 129.634036 85.824 
z
" clip-path="url(#p4550c87299)" style="fill: #a50026"/>
   </g>
   <g id="patch_155">
    <path d="M 152.474894 108 
L 157.312984 108 
L 157.312984 85.824 
L 152.474894 85.824 
z
" clip-path="url(#p4550c87299)" style="fill: #a50026"/>
   </g>
   <g id="patch_156">
    <path d="M 168.718521 108 
L 175.284608 108 
L 175.284608 85.824 
L 168.718521 85.824 
z
" clip-path="url(#p4550c87299)" style="fill: #a50026"/>
   </g>
   <g id="patch_157">
    <path d="M 186.226625 108 
L 193.039439 108 
L 193.039439 85.824 
L 186.226625 85.824 
z
" clip-path="url(#p4550c87299)" style="fill: #a50026"/>
   </g>
   <g id="patch_158">
    <path d="M 208.262143 108 
L 215.866993 108 
L 215.866993 85.824 
L 208.262143 85.824 
z
" clip-path="url(#p4550c87299)" style="fill: #a50026"/>
   </g>
   <g id="patch_159">
    <path d="M 228.55651 108 
L 232.249556 108 
L 232.249556 85.824 
L 228.55651 85.824 
z
" clip-path="url(#p4550c87299)" style="fill: #a50026"/>
   </g>
   <g id="patch_160">
    <path d="M 238.699536 108 
L 246.303631 108 
L 246.303631 85.824 
L 238.699536 85.824 
z
" clip-path="url(#p4550c87299)" style="fill: #a50026"/>
   </g>
   <g id="patch_161">
    <path d="M 264.062846 108 
L 271.667546 108 
L 271.667546 85.824 
L 264.062846 85.824 
z
" clip-path="url(#p4550c87299)" style="fill: #a50026"/>
   </g>
   <g id="patch_162">
    <path d="M 284.897383 108 
L 291.958739 108 
L 291.958739 85.824 
L 284.897383 85.824 
z
" clip-path="url(#p4550c87299)" style="fill: #a50026"/>
   </g>
   <g id="patch_163">
    <path d="M 309.717954 108 
L 313.514861 108 
L 313.514861 85.824 
L 309.717954 85.824 
z
" clip-path="url(#p4550c87299)" style="fill: #a50026"/>
   </g>
   <g id="patch_164">
    <path d="M 317.991629 108 
L 324.931889 108 
L 324.931889 85.824 
L 317.991629 85.824 
z
" clip-path="url(#p4550c87299)" style="fill: #a50026"/>
   </g>
   <g id="patch_165">
    <path d="M 340.154592 108 
L 347.759443 108 
L 347.759443 85.824 
L 340.154592 85.824 
z
" clip-path="url(#p4550c87299)" style="fill: #a50026"/>
   </g>
   <g id="patch_166">
    <path d="M 362.982901 108 
L 366.849503 108 
L 366.849503 85.824 
L 362.982901 85.824 
z
" clip-path="url(#p4550c87299)" style="fill: #a50026"/>
   </g>
   <g id="patch_167">
    <path d="M 373.128347 108 
L 377.240617 108 
L 377.240617 85.824 
L 373.128347 85.824 
z
" clip-path="url(#p4550c87299)" style="fill: #a50026"/>
   </g>
   <g id="patch_168">
    <path d="M 383.273338 108 
L 390.877433 108 
L 390.877433 85.824 
L 383.273338 85.824 
z
" clip-path="url(#p4550c87299)" style="fill: #a50026"/>
   </g>
   <g id="patch_169">
    <path d="M 85.91102 85.824 
L 91.583628 85.824 
L 91.583628 63.648 
L 85.91102 63.648 
z
" clip-path="url(#p4550c87299)" style="fill: #006837"/>
   </g>
   <g id="patch_170">
    <path d="M 101.809048 85.824 
L 107.456409 85.824 
L 107.456409 63.648 
L 101.809048 63.648 
z
" clip-path="url(#p4550c87299)" style="fill: #006837"/>
   </g>
   <g id="patch_171">
    <path d="M 122.024801 85.824 
L 129.628896 85.824 
L 129.628896 63.648 
L 122.024801 63.648 
z
" clip-path="url(#p4550c87299)" style="fill: #006837"/>
   </g>
   <g id="patch_172">
    <path d="M 144.852355 85.824 
L 149.575698 85.824 
L 149.575698 63.648 
L 144.852355 63.648 
z
" clip-path="url(#p4550c87299)" style="fill: #006837"/>
   </g>
   <g id="patch_173">
    <path d="M 154.997951 85.824 
L 161.849316 85.824 
L 161.849316 63.648 
L 154.997951 63.648 
z
" clip-path="url(#p4550c87299)" style="fill: #006837"/>
   </g>
   <g id="patch_174">
    <path d="M 182.898832 85.824 
L 190.502927 85.824 
L 190.502927 63.648 
L 182.898832 63.648 
z
" clip-path="url(#p4550c87299)" style="fill: #006837"/>
   </g>
   <g id="patch_175">
    <path d="M 200.673922 85.824 
L 208.257154 85.824 
L 208.257154 63.648 
L 200.673922 63.648 
z
" clip-path="url(#p4550c87299)" style="fill: #006837"/>
   </g>
   <g id="patch_176">
    <path d="M 225.009353 85.824 
L 231.085312 85.824 
L 231.085312 63.648 
L 225.009353 63.648 
z
" clip-path="url(#p4550c87299)" style="fill: #006837"/>
   </g>
   <g id="patch_177">
    <path d="M 246.308015 85.824 
L 253.912866 85.824 
L 253.912866 63.648 
L 246.308015 63.648 
z
" clip-path="url(#p4550c87299)" style="fill: #006837"/>
   </g>
   <g id="patch_178">
    <path d="M 269.135569 85.824 
L 277.177332 85.824 
L 277.177332 63.648 
L 269.135569 63.648 
z
" clip-path="url(#p4550c87299)" style="fill: #006837"/>
   </g>
   <g id="patch_179">
    <path d="M 289.353288 85.824 
L 294.4951 85.824 
L 294.4951 63.648 
L 289.353288 63.648 
z
" clip-path="url(#p4550c87299)" style="fill: #006837"/>
   </g>
   <g id="patch_180">
    <path d="M 309.717954 85.824 
L 317.322654 85.824 
L 317.322654 63.648 
L 309.717954 63.648 
z
" clip-path="url(#p4550c87299)" style="fill: #006837"/>
   </g>
   <g id="patch_181">
    <path d="M 332.545508 85.824 
L 340.150208 85.824 
L 340.150208 63.648 
L 332.545508 63.648 
z
" clip-path="url(#p4550c87299)" style="fill: #006837"/>
   </g>
   <g id="patch_182">
    <path d="M 353.10036 85.824 
L 359.251153 85.824 
L 359.251153 63.648 
L 353.10036 63.648 
z
" clip-path="url(#p4550c87299)" style="fill: #006837"/>
   </g>
   <g id="patch_183">
    <path d="M 365.518658 85.824 
L 373.123358 85.824 
L 373.123358 63.648 
L 365.518658 63.648 
z
" clip-path="url(#p4550c87299)" style="fill: #006837"/>
   </g>
   <g id="patch_184">
    <path d="M 388.346212 85.824 
L 395.950307 85.824 
L 395.950307 63.648 
L 388.346212 63.648 
z
" clip-path="url(#p4550c87299)" style="fill: #006837"/>
   </g>
   <g id="patch_185">
    <path d="M 89.05286 63.648 
L 95.628472 63.648 
L 95.628472 41.472 
L 89.05286 41.472 
z
" clip-path="url(#p4550c87299)" style="fill: #fdbf6f"/>
   </g>
   <g id="patch_186">
    <path d="M 106.274477 63.648 
L 111.87482 63.648 
L 111.87482 41.472 
L 106.274477 41.472 
z
" clip-path="url(#p4550c87299)" style="fill: #fdbf6f"/>
   </g>
   <g id="patch_187">
    <path d="M 127.103873 63.648 
L 134.702374 63.648 
L 134.702374 41.472 
L 127.103873 41.472 
z
" clip-path="url(#p4550c87299)" style="fill: #fdbf6f"/>
   </g>
   <g id="patch_188">
    <path d="M 149.925077 63.648 
L 157.529928 63.648 
L 157.529928 41.472 
L 149.925077 41.472 
z
" clip-path="url(#p4550c87299)" style="fill: #fdbf6f"/>
   </g>
   <g id="patch_189">
    <path d="M 172.753236 63.648 
L 180.357331 63.648 
L 180.357331 41.472 
L 172.753236 41.472 
z
" clip-path="url(#p4550c87299)" style="fill: #fdbf6f"/>
   </g>
   <g id="patch_190">
    <path d="M 195.582755 63.648 
L 198.68544 63.648 
L 198.68544 41.472 
L 195.582755 41.472 
z
" clip-path="url(#p4550c87299)" style="fill: #fdbf6f"/>
   </g>
   <g id="patch_191">
    <path d="M 205.726386 63.648 
L 213.330481 63.648 
L 213.330481 41.472 
L 205.726386 41.472 
z
" clip-path="url(#p4550c87299)" style="fill: #fdbf6f"/>
   </g>
   <g id="patch_192">
    <path d="M 225.751198 63.648 
L 231.085312 63.648 
L 231.085312 41.472 
L 225.751198 41.472 
z
" clip-path="url(#p4550c87299)" style="fill: #fdbf6f"/>
   </g>
   <g id="patch_193">
    <path d="M 246.308015 63.648 
L 250.28891 63.648 
L 250.28891 41.472 
L 246.308015 41.472 
z
" clip-path="url(#p4550c87299)" style="fill: #fdbf6f"/>
   </g>
   <g id="patch_194">
    <path d="M 256.455577 63.648 
L 264.057706 63.648 
L 264.057706 41.472 
L 256.455577 41.472 
z
" clip-path="url(#p4550c87299)" style="fill: #fdbf6f"/>
   </g>
   <g id="patch_195">
    <path d="M 279.283131 63.648 
L 286.886016 63.648 
L 286.886016 41.472 
L 279.283131 41.472 
z
" clip-path="url(#p4550c87299)" style="fill: #fdbf6f"/>
   </g>
   <g id="patch_196">
    <path d="M 299.572358 63.648 
L 307.177057 63.648 
L 307.177057 41.472 
L 299.572358 41.472 
z
" clip-path="url(#p4550c87299)" style="fill: #fdbf6f"/>
   </g>
   <g id="patch_197">
    <path d="M 324.936273 63.648 
L 332.540973 63.648 
L 332.540973 41.472 
L 324.936273 41.472 
z
" clip-path="url(#p4550c87299)" style="fill: #fdbf6f"/>
   </g>
   <g id="patch_198">
    <path d="M 347.763827 63.648 
L 355.368526 63.648 
L 355.368526 41.472 
L 347.763827 41.472 
z
" clip-path="url(#p4550c87299)" style="fill: #fdbf6f"/>
   </g>
   <g id="patch_199">
    <path d="M 370.591381 63.648 
L 373.123358 63.648 
L 373.123358 41.472 
L 370.591381 41.472 
z
" clip-path="url(#p4550c87299)" style="fill: #fdbf6f"/>
   </g>
   <g id="patch_200">
    <path d="M 380.737582 63.648 
L 388.341072 63.648 
L 388.341072 41.472 
L 380.737582 41.472 
z
" clip-path="url(#p4550c87299)" style="fill: #fdbf6f"/>
   </g>
   <g id="matplotlib.axis_1">
    <g id="xtick_1">
     <g id="line2d_1">
      <defs>
       <path id="ma980698870" d="M 0 0 
L 0 3.5 
" style="stroke: #000000; stroke-width: 0.8"/>
      </defs>
      <g>
       <use xlink:href="#ma980698870" x="75.48075" y="307.584" style="stroke: #000000; stroke-width: 0.8"/>
      </g>
     </g>
     <g id="text_1">
      <!-- 1.0 -->
      <g transform="translate(67.529187 322.182437) scale(0.1 -0.1)">
       <defs>
        <path id="DejaVuSans-31" d="M 794 531 
L 1825 531 
L 1825 4091 
L 703 3866 
L 703 4441 
L 1819 4666 
L 2450 4666 
L 2450 531 
L 3481 531 
L 3481 0 
L 794 0 
L 794 531 
z
" transform="scale(0.015625)"/>
        <path id="DejaVuSans-2e" d="M 684 794 
L 1344 794 
L 1344 0 
L 684 0 
L 684 794 
z
" transform="scale(0.015625)"/>
        <path id="DejaVuSans-30" d="M 2034 4250 
Q 1547 4250 1301 3770 
Q 1056 3291 1056 2328 
Q 1056 1369 1301 889 
Q 1547 409 2034 409 
Q 2525 409 2770 889 
Q 3016 1369 3016 2328 
Q 3016 3291 2770 3770 
Q 2525 4250 2034 4250 
z
M 2034 4750 
Q 2819 4750 3233 4129 
Q 3647 3509 3647 2328 
Q 3647 1150 3233 529 
Q 2819 -91 2034 -91 
Q 1250 -91 836 529 
Q 422 1150 422 2328 
Q 422 3509 836 4129 
Q 1250 4750 2034 4750 
z
" transform="scale(0.015625)"/>
       </defs>
       <use xlink:href="#DejaVuSans-31"/>
       <use xlink:href="#DejaVuSans-2e" x="63.623047"/>
       <use xlink:href="#DejaVuSans-30" x="95.410156"/>
      </g>
     </g>
    </g>
    <g id="xtick_2">
     <g id="line2d_2">
      <g>
       <use xlink:href="#ma980698870" x="138.890598" y="307.584" style="stroke: #000000; stroke-width: 0.8"/>
      </g>
     </g>
     <g id="text_2">
      <!-- 1.1 -->
      <g transform="translate(130.939036 322.182437) scale(0.1 -0.1)">
       <use xlink:href="#DejaVuSans-31"/>
       <use xlink:href="#DejaVuSans-2e" x="63.623047"/>
       <use xlink:href="#DejaVuSans-31" x="95.410156"/>
      </g>
     </g>
    </g>
    <g id="xtick_3">
     <g id="line2d_3">
      <g>
       <use xlink:href="#ma980698870" x="202.300446" y="307.584" style="stroke: #000000; stroke-width: 0.8"/>
      </g>
     </g>
     <g id="text_3">
      <!-- 1.2 -->
      <g transform="translate(194.348884 322.182437) scale(0.1 -0.1)">
       <defs>
        <path id="DejaVuSans-32" d="M 1228 531 
L 3431 531 
L 3431 0 
L 469 0 
L 469 531 
Q 828 903 1448 1529 
Q 2069 2156 2228 2338 
Q 2531 2678 2651 2914 
Q 2772 3150 2772 3378 
Q 2772 3750 2511 3984 
Q 2250 4219 1831 4219 
Q 1534 4219 1204 4116 
Q 875 4013 500 3803 
L 500 4441 
Q 881 4594 1212 4672 
Q 1544 4750 1819 4750 
Q 2544 4750 2975 4387 
Q 3406 4025 3406 3419 
Q 3406 3131 3298 2873 
Q 3191 2616 2906 2266 
Q 2828 2175 2409 1742 
Q 1991 1309 1228 531 
z
" transform="scale(0.015625)"/>
       </defs>
       <use xlink:href="#DejaVuSans-31"/>
       <use xlink:href="#DejaVuSans-2e" x="63.623047"/>
       <use xlink:href="#DejaVuSans-32" x="95.410156"/>
      </g>
     </g>
    </g>
    <g id="xtick_4">
     <g id="line2d_4">
      <g>
       <use xlink:href="#ma980698870" x="265.710295" y="307.584" style="stroke: #000000; stroke-width: 0.8"/>
      </g>
     </g>
     <g id="text_4">
      <!-- 1.3 -->
      <g transform="translate(257.758732 322.182437) scale(0.1 -0.1)">
       <defs>
        <path id="DejaVuSans-33" d="M 2597 2516 
Q 3050 2419 3304 2112 
Q 3559 1806 3559 1356 
Q 3559 666 3084 287 
Q 2609 -91 1734 -91 
Q 1441 -91 1130 -33 
Q 819 25 488 141 
L 488 750 
Q 750 597 1062 519 
Q 1375 441 1716 441 
Q 2309 441 2620 675 
Q 2931 909 2931 1356 
Q 2931 1769 2642 2001 
Q 2353 2234 1838 2234 
L 1294 2234 
L 1294 2753 
L 1863 2753 
Q 2328 2753 2575 2939 
Q 2822 3125 2822 3475 
Q 2822 3834 2567 4026 
Q 2313 4219 1838 4219 
Q 1578 4219 1281 4162 
Q 984 4106 628 3988 
L 628 4550 
Q 988 4650 1302 4700 
Q 1616 4750 1894 4750 
Q 2613 4750 3031 4423 
Q 3450 4097 3450 3541 
Q 3450 3153 3228 2886 
Q 3006 2619 2597 2516 
z
" transform="scale(0.015625)"/>
       </defs>
       <use xlink:href="#DejaVuSans-31"/>
       <use xlink:href="#DejaVuSans-2e" x="63.623047"/>
       <use xlink:href="#DejaVuSans-33" x="95.410156"/>
      </g>
     </g>
    </g>
    <g id="xtick_5">
     <g id="line2d_5">
      <g>
       <use xlink:href="#ma980698870" x="329.120143" y="307.584" style="stroke: #000000; stroke-width: 0.8"/>
      </g>
     </g>
     <g id="text_5">
      <!-- 1.4 -->
      <g transform="translate(321.16858 322.182437) scale(0.1 -0.1)">
       <defs>
        <path id="DejaVuSans-34" d="M 2419 4116 
L 825 1625 
L 2419 1625 
L 2419 4116 
z
M 2253 4666 
L 3047 4666 
L 3047 1625 
L 3713 1625 
L 3713 1100 
L 3047 1100 
L 3047 0 
L 2419 0 
L 2419 1100 
L 313 1100 
L 313 1709 
L 2253 4666 
z
" transform="scale(0.015625)"/>
       </defs>
       <use xlink:href="#DejaVuSans-31"/>
       <use xlink:href="#DejaVuSans-2e" x="63.623047"/>
       <use xlink:href="#DejaVuSans-34" x="95.410156"/>
      </g>
     </g>
    </g>
    <g id="xtick_6">
     <g id="line2d_6">
      <g>
       <use xlink:href="#ma980698870" x="392.529991" y="307.584" style="stroke: #000000; stroke-width: 0.8"/>
      </g>
     </g>
     <g id="text_6">
      <!-- 1.5 -->
      <g transform="translate(384.578428 322.182437) scale(0.1 -0.1)">
       <defs>
        <path id="DejaVuSans-35" d="M 691 4666 
L 3169 4666 
L 3169 4134 
L 1269 4134 
L 1269 2991 
Q 1406 3038 1543 3061 
Q 1681 3084 1819 3084 
Q 2600 3084 3056 2656 
Q 3513 2228 3513 1497 
Q 3513 744 3044 326 
Q 2575 -91 1722 -91 
Q 1428 -91 1123 -41 
Q 819 9 494 109 
L 494 744 
Q 775 591 1075 516 
Q 1375 441 1709 441 
Q 2250 441 2565 725 
Q 2881 1009 2881 1497 
Q 2881 1984 2565 2268 
Q 2250 2553 1709 2553 
Q 1456 2553 1204 2497 
Q 953 2441 691 2322 
L 691 4666 
z
" transform="scale(0.015625)"/>
       </defs>
       <use xlink:href="#DejaVuSans-31"/>
       <use xlink:href="#DejaVuSans-2e" x="63.623047"/>
       <use xlink:href="#DejaVuSans-35" x="95.410156"/>
      </g>
     </g>
    </g>
    <g id="text_7">
     <!-- time -->
     <g transform="translate(224.863906 335.860562) scale(0.1 -0.1)">
      <defs>
       <path id="DejaVuSans-74" d="M 1172 4494 
L 1172 3500 
L 2356 3500 
L 2356 3053 
L 1172 3053 
L 1172 1153 
Q 1172 725 1289 603 
Q 1406 481 1766 481 
L 2356 481 
L 2356 0 
L 1766 0 
Q 1100 0 847 248 
Q 594 497 594 1153 
L 594 3053 
L 172 3053 
L 172 3500 
L 594 3500 
L 594 4494 
L 1172 4494 
z
" transform="scale(0.015625)"/>
       <path id="DejaVuSans-69" d="M 603 3500 
L 1178 3500 
L 1178 0 
L 603 0 
L 603 3500 
z
M 603 4863 
L 1178 4863 
L 1178 4134 
L 603 4134 
L 603 4863 
z
" transform="scale(0.015625)"/>
       <path id="DejaVuSans-6d" d="M 3328 2828 
Q 3544 3216 3844 3400 
Q 4144 3584 4550 3584 
Q 5097 3584 5394 3201 
Q 5691 2819 5691 2113 
L 5691 0 
L 5113 0 
L 5113 2094 
Q 5113 2597 4934 2840 
Q 4756 3084 4391 3084 
Q 3944 3084 3684 2787 
Q 3425 2491 3425 1978 
L 3425 0 
L 2847 0 
L 2847 2094 
Q 2847 2600 2669 2842 
Q 2491 3084 2119 3084 
Q 1678 3084 1418 2786 
Q 1159 2488 1159 1978 
L 1159 0 
L 581 0 
L 581 3500 
L 1159 3500 
L 1159 2956 
Q 1356 3278 1631 3431 
Q 1906 3584 2284 3584 
Q 2666 3584 2933 3390 
Q 3200 3197 3328 2828 
z
" transform="scale(0.015625)"/>
       <path id="DejaVuSans-65" d="M 3597 1894 
L 3597 1613 
L 953 1613 
Q 991 1019 1311 708 
Q 1631 397 2203 397 
Q 2534 397 2845 478 
Q 3156 559 3463 722 
L 3463 178 
Q 3153 47 2828 -22 
Q 2503 -91 2169 -91 
Q 1331 -91 842 396 
Q 353 884 353 1716 
Q 353 2575 817 3079 
Q 1281 3584 2069 3584 
Q 2775 3584 3186 3129 
Q 3597 2675 3597 1894 
z
M 3022 2063 
Q 3016 2534 2758 2815 
Q 2500 3097 2075 3097 
Q 1594 3097 1305 2825 
Q 1016 2553 972 2059 
L 3022 2063 
z
" transform="scale(0.015625)"/>
      </defs>
      <use xlink:href="#DejaVuSans-74"/>
      <use xlink:href="#DejaVuSans-69" x="39.208984"/>
      <use xlink:href="#DejaVuSans-6d" x="66.992188"/>
      <use xlink:href="#DejaVuSans-65" x="164.404297"/>
     </g>
    </g>
   </g>
   <g id="matplotlib.axis_2">
    <g id="ytick_1">
     <g id="line2d_7">
      <defs>
       <path id="m741ff8b6e6" d="M 0 0 
L -3.5 0 
" style="stroke: #000000; stroke-width: 0.8"/>
      </defs>
      <g>
       <use xlink:href="#m741ff8b6e6" x="57.6" y="307.584" style="stroke: #000000; stroke-width: 0.8"/>
      </g>
     </g>
     <g id="text_8">
      <!-- 0 -->
      <g transform="translate(44.2375 311.383219) scale(0.1 -0.1)">
       <use xlink:href="#DejaVuSans-30"/>
      </g>
     </g>
    </g>
    <g id="ytick_2">
     <g id="line2d_8">
      <g>
       <use xlink:href="#m741ff8b6e6" x="57.6" y="263.232" style="stroke: #000000; stroke-width: 0.8"/>
      </g>
     </g>
     <g id="text_9">
      <!-- 2 -->
      <g transform="translate(44.2375 267.031219) scale(0.1 -0.1)">
       <use xlink:href="#DejaVuSans-32"/>
      </g>
     </g>
    </g>
    <g id="ytick_3">
     <g id="line2d_9">
      <g>
       <use xlink:href="#m741ff8b6e6" x="57.6" y="218.88" style="stroke: #000000; stroke-width: 0.8"/>
      </g>
     </g>
     <g id="text_10">
      <!-- 4 -->
      <g transform="translate(44.2375 222.679219) scale(0.1 -0.1)">
       <use xlink:href="#DejaVuSans-34"/>
      </g>
     </g>
    </g>
    <g id="ytick_4">
     <g id="line2d_10">
      <g>
       <use xlink:href="#m741ff8b6e6" x="57.6" y="174.528" style="stroke: #000000; stroke-width: 0.8"/>
      </g>
     </g>
     <g id="text_11">
      <!-- 6 -->
      <g transform="translate(44.2375 178.327219) scale(0.1 -0.1)">
       <defs>
        <path id="DejaVuSans-36" d="M 2113 2584 
Q 1688 2584 1439 2293 
Q 1191 2003 1191 1497 
Q 1191 994 1439 701 
Q 1688 409 2113 409 
Q 2538 409 2786 701 
Q 3034 994 3034 1497 
Q 3034 2003 2786 2293 
Q 2538 2584 2113 2584 
z
M 3366 4563 
L 3366 3988 
Q 3128 4100 2886 4159 
Q 2644 4219 2406 4219 
Q 1781 4219 1451 3797 
Q 1122 3375 1075 2522 
Q 1259 2794 1537 2939 
Q 1816 3084 2150 3084 
Q 2853 3084 3261 2657 
Q 3669 2231 3669 1497 
Q 3669 778 3244 343 
Q 2819 -91 2113 -91 
Q 1303 -91 875 529 
Q 447 1150 447 2328 
Q 447 3434 972 4092 
Q 1497 4750 2381 4750 
Q 2619 4750 2861 4703 
Q 3103 4656 3366 4563 
z
" transform="scale(0.015625)"/>
       </defs>
       <use xlink:href="#DejaVuSans-36"/>
      </g>
     </g>
    </g>
    <g id="ytick_5">
     <g id="line2d_11">
      <g>
       <use xlink:href="#m741ff8b6e6" x="57.6" y="130.176" style="stroke: #000000; stroke-width: 0.8"/>
      </g>
     </g>
     <g id="text_12">
      <!-- 8 -->
      <g transform="translate(44.2375 133.975219) scale(0.1 -0.1)">
       <defs>
        <path id="DejaVuSans-38" d="M 2034 2216 
Q 1584 2216 1326 1975 
Q 1069 1734 1069 1313 
Q 1069 891 1326 650 
Q 1584 409 2034 409 
Q 2484 409 2743 651 
Q 3003 894 3003 1313 
Q 3003 1734 2745 1975 
Q 2488 2216 2034 2216 
z
M 1403 2484 
Q 997 2584 770 2862 
Q 544 3141 544 3541 
Q 544 4100 942 4425 
Q 1341 4750 2034 4750 
Q 2731 4750 3128 4425 
Q 3525 4100 3525 3541 
Q 3525 3141 3298 2862 
Q 3072 2584 2669 2484 
Q 3125 2378 3379 2068 
Q 3634 1759 3634 1313 
Q 3634 634 3220 271 
Q 2806 -91 2034 -91 
Q 1263 -91 848 271 
Q 434 634 434 1313 
Q 434 1759 690 2068 
Q 947 2378 1403 2484 
z
M 1172 3481 
Q 1172 3119 1398 2916 
Q 1625 2713 2034 2713 
Q 2441 2713 2670 2916 
Q 2900 3119 2900 3481 
Q 2900 3844 2670 4047 
Q 2441 4250 2034 4250 
Q 1625 4250 1398 4047 
Q 1172 3844 1172 3481 
z
" transform="scale(0.015625)"/>
       </defs>
       <use xlink:href="#DejaVuSans-38"/>
      </g>
     </g>
    </g>
    <g id="ytick_6">
     <g id="line2d_12">
      <g>
       <use xlink:href="#m741ff8b6e6" x="57.6" y="85.824" style="stroke: #000000; stroke-width: 0.8"/>
      </g>
     </g>
     <g id="text_13">
      <!-- 10 -->
      <g transform="translate(37.875 89.623219) scale(0.1 -0.1)">
       <use xlink:href="#DejaVuSans-31"/>
       <use xlink:href="#DejaVuSans-30" x="63.623047"/>
      </g>
     </g>
    </g>
    <g id="ytick_7">
     <g id="line2d_13">
      <g>
       <use xlink:href="#m741ff8b6e6" x="57.6" y="41.472" style="stroke: #000000; stroke-width: 0.8"/>
      </g>
     </g>
     <g id="text_14">
      <!-- 12 -->
      <g transform="translate(37.875 45.271219) scale(0.1 -0.1)">
       <use xlink:href="#DejaVuSans-31"/>
       <use xlink:href="#DejaVuSans-32" x="63.623047"/>
      </g>
     </g>
    </g>
    <g id="text_15">
     <!-- thread -->
     <g transform="translate(31.795312 190.914719) rotate(-90) scale(0.1 -0.1)">
      <defs>
       <path id="DejaVuSans-68" d="M 3513 2113 
L 3513 0 
L 2938 0 
L 2938 2094 
Q 2938 2591 2744 2837 
Q 2550 3084 2163 3084 
Q 1697 3084 1428 2787 
Q 1159 2491 1159 1978 
L 1159 0 
L 581 0 
L 581 4863 
L 1159 4863 
L 1159 2956 
Q 1366 3272 1645 3428 
Q 1925 3584 2291 3584 
Q 2894 3584 3203 3211 
Q 3513 2838 3513 2113 
z
" transform="scale(0.015625)"/>
       <path id="DejaVuSans-72" d="M 2631 2963 
Q 2534 3019 2420 3045 
Q 2306 3072 2169 3072 
Q 1681 3072 1420 2755 
Q 1159 2438 1159 1844 
L 1159 0 
L 581 0 
L 581 3500 
L 1159 3500 
L 1159 2956 
Q 1341 3275 1631 3429 
Q 1922 3584 2338 3584 
Q 2397 3584 2469 3576 
Q 2541 3569 2628 3553 
L 2631 2963 
z
" transform="scale(0.015625)"/>
       <path id="DejaVuSans-61" d="M 2194 1759 
Q 1497 1759 1228 1600 
Q 959 1441 959 1056 
Q 959 750 1161 570 
Q 1363 391 1709 391 
Q 2188 391 2477 730 
Q 2766 1069 2766 1631 
L 2766 1759 
L 2194 1759 
z
M 3341 1997 
L 3341 0 
L 2766 0 
L 2766 531 
Q 2569 213 2275 61 
Q 1981 -91 1556 -91 
Q 1019 -91 701 211 
Q 384 513 384 1019 
Q 384 1609 779 1909 
Q 1175 2209 1959 2209 
L 2766 2209 
L 2766 2266 
Q 2766 2663 2505 2880 
Q 2244 3097 1772 3097 
Q 1472 3097 1187 3025 
Q 903 2953 641 2809 
L 641 3341 
Q 956 3463 1253 3523 
Q 1550 3584 1831 3584 
Q 2591 3584 2966 3190 
Q 3341 2797 3341 1997 
z
" transform="scale(0.015625)"/>
       <path id="DejaVuSans-64" d="M 2906 2969 
L 2906 4863 
L 3481 4863 
L 3481 0 
L 2906 0 
L 2906 525 
Q 2725 213 2448 61 
Q 2172 -91 1784 -91 
Q 1150 -91 751 415 
Q 353 922 353 1747 
Q 353 2572 751 3078 
Q 1150 3584 1784 3584 
Q 2172 3584 2448 3432 
Q 2725 3281 2906 2969 
z
M 947 1747 
Q 947 1113 1208 752 
Q 1469 391 1925 391 
Q 2381 391 2643 752 
Q 2906 1113 2906 1747 
Q 2906 2381 2643 2742 
Q 2381 3103 1925 3103 
Q 1469 3103 1208 2742 
Q 947 2381 947 1747 
z
" transform="scale(0.015625)"/>
      </defs>
      <use xlink:href="#DejaVuSans-74"/>
      <use xlink:href="#DejaVuSans-68" x="39.208984"/>
      <use xlink:href="#DejaVuSans-72" x="102.587891"/>
      <use xlink:href="#DejaVuSans-65" x="141.451172"/>
      <use xlink:href="#DejaVuSans-61" x="202.974609"/>
      <use xlink:href="#DejaVuSans-64" x="264.253906"/>
     </g>
    </g>
   </g>
   <g id="patch_201">
    <path d="M 57.6 307.584 
L 57.6 41.472 
" style="fill: none; stroke: #000000; stroke-width: 0.8; stroke-linejoin: miter; stroke-linecap: square"/>
   </g>
   <g id="patch_202">
    <path d="M 414.72 307.584 
L 414.72 41.472 
" style="fill: none; stroke: #000000; stroke-width: 0.8; stroke-linejoin: miter; stroke-linecap: square"/>
   </g>
   <g id="patch_203">
    <path d="M 57.6 307.584 
L 414.72 307.584 
" style="fill: none; stroke: #000000; stroke-width: 0.8; stroke-linejoin: miter; stroke-linecap: square"/>
   </g>
   <g id="patch_204">
    <path d="M 57.6 41.472 
L 414.72 41.472 
" style="fill: none; stroke: #000000; stroke-width: 0.8; stroke-linejoin: miter; stroke-linecap: square"/>
   </g>
   <g id="text_16">
    <!-- thread scheduling -->
    <g transform="translate(182.113125 35.472) scale(0.12 -0.12)">
     <defs>
      <path id="DejaVuSans-20" transform="scale(0.015625)"/>
      <path id="DejaVuSans-73" d="M 2834 3397 
L 2834 2853 
Q 2591 2978 2328 3040 
Q 2066 3103 1784 3103 
Q 1356 3103 1142 2972 
Q 928 2841 928 2578 
Q 928 2378 1081 2264 
Q 1234 2150 1697 2047 
L 1894 2003 
Q 2506 1872 2764 1633 
Q 3022 1394 3022 966 
Q 3022 478 2636 193 
Q 2250 -91 1575 -91 
Q 1294 -91 989 -36 
Q 684 19 347 128 
L 347 722 
Q 666 556 975 473 
Q 1284 391 1588 391 
Q 1994 391 2212 530 
Q 2431 669 2431 922 
Q 2431 1156 2273 1281 
Q 2116 1406 1581 1522 
L 1381 1569 
Q 847 1681 609 1914 
Q 372 2147 372 2553 
Q 372 3047 722 3315 
Q 1072 3584 1716 3584 
Q 2034 3584 2315 3537 
Q 2597 3491 2834 3397 
z
" transform="scale(0.015625)"/>
      <path id="DejaVuSans-63" d="M 3122 3366 
L 3122 2828 
Q 2878 2963 2633 3030 
Q 2388 3097 2138 3097 
Q 1578 3097 1268 2742 
Q 959 2388 959 1747 
Q 959 1106 1268 751 
Q 1578 397 2138 397 
Q 2388 397 2633 464 
Q 2878 531 3122 666 
L 3122 134 
Q 2881 22 2623 -34 
Q 2366 -91 2075 -91 
Q 1284 -91 818 406 
Q 353 903 353 1747 
Q 353 2603 823 3093 
Q 1294 3584 2113 3584 
Q 2378 3584 2631 3529 
Q 2884 3475 3122 3366 
z
" transform="scale(0.015625)"/>
      <path id="DejaVuSans-75" d="M 544 1381 
L 544 3500 
L 1119 3500 
L 1119 1403 
Q 1119 906 1312 657 
Q 1506 409 1894 409 
Q 2359 409 2629 706 
Q 2900 1003 2900 1516 
L 2900 3500 
L 3475 3500 
L 3475 0 
L 2900 0 
L 2900 538 
Q 2691 219 2414 64 
Q 2138 -91 1772 -91 
Q 1169 -91 856 284 
Q 544 659 544 1381 
z
M 1991 3584 
L 1991 3584 
z
" transform="scale(0.015625)"/>
      <path id="DejaVuSans-6c" d="M 603 4863 
L 1178 4863 
L 1178 0 
L 603 0 
L 603 4863 
z
" transform="scale(0.015625)"/>
      <path id="DejaVuSans-6e" d="M 3513 2113 
L 3513 0 
L 2938 0 
L 2938 2094 
Q 2938 2591 2744 2837 
Q 2550 3084 2163 3084 
Q 1697 3084 1428 2787 
Q 1159 2491 1159 1978 
L 1159 0 
L 581 0 
L 581 3500 
L 1159 3500 
L 1159 2956 
Q 1366 3272 1645 3428 
Q 1925 3584 2291 3584 
Q 2894 3584 3203 3211 
Q 3513 2838 3513 2113 
z
" transform="scale(0.015625)"/>
      <path id="DejaVuSans-67" d="M 2906 1791 
Q 2906 2416 2648 2759 
Q 2391 3103 1925 3103 
Q 1463 3103 1205 2759 
Q 947 2416 947 1791 
Q 947 1169 1205 825 
Q 1463 481 1925 481 
Q 2391 481 2648 825 
Q 2906 1169 2906 1791 
z
M 3481 434 
Q 3481 -459 3084 -895 
Q 2688 -1331 1869 -1331 
Q 1566 -1331 1297 -1286 
Q 1028 -1241 775 -1147 
L 775 -588 
Q 1028 -725 1275 -790 
Q 1522 -856 1778 -856 
Q 2344 -856 2625 -561 
Q 2906 -266 2906 331 
L 2906 616 
Q 2728 306 2450 153 
Q 2172 0 1784 0 
Q 1141 0 747 490 
Q 353 981 353 1791 
Q 353 2603 747 3093 
Q 1141 3584 1784 3584 
Q 2172 3584 2450 3431 
Q 2728 3278 2906 2969 
L 2906 3500 
L 3481 3500 
L 3481 434 
z
" transform="scale(0.015625)"/>
     </defs>
     <use xlink:href="#DejaVuSans-74"/>
     <use xlink:href="#DejaVuSans-68" x="39.208984"/>
     <use xlink:href="#DejaVuSans-72" x="102.587891"/>
     <use xlink:href="#DejaVuSans-65" x="141.451172"/>
     <use xlink:href="#DejaVuSans-61" x="202.974609"/>
     <use xlink:href="#DejaVuSans-64" x="264.253906"/>
     <use xlink:href="#DejaVuSans-20" x="327.730469"/>
     <use xlink:href="#DejaVuSans-73" x="359.517578"/>
     <use xlink:href="#DejaVuSans-63" x="411.617188"/>
     <use xlink:href="#DejaVuSans-68" x="466.597656"/>
     <use xlink:href="#DejaVuSans-65" x="529.976562"/>
     <use xlink:href="#DejaVuSans-64" x="591.5"/>
     <use xlink:href="#DejaVuSans-75" x="654.976562"/>
     <use xlink:href="#DejaVuSans-6c" x="718.355469"/>
     <use xlink:href="#DejaVuSans-69" x="746.138672"/>
     <use xlink:href="#DejaVuSans-6e" x="773.921875"/>
     <use xlink:href="#DejaVuSans-67" x="837.300781"/>
    </g>
   </g>
  </g>
 </g>
 <defs>
  <clipPath id="p4550c87299">
   <rect x="57.6" y="41.472" width="357.12" height="266.112"/>
  </clipPath>
 </defs>
</svg>
